<?xml version="1.0" standalone="no"?>
<!DOCTYPE svg PUBLIC "-//W3C//DTD SVG 20010904//EN"
 "http://www.w3.org/TR/2001/REC-SVG-20010904/DTD/svg10.dtd">
<svg version="1.0" xmlns="http://www.w3.org/2000/svg"
 width="637.000000pt" height="754.000000pt" viewBox="0 0 637.000000 754.000000"
 preserveAspectRatio="xMidYMid meet">

<g transform="translate(0.000000,754.000000) scale(0.100000,-0.100000)"
fill="#000000" stroke="none">
<path d="M2858 7110 c-83 -13 -163 -38 -243 -74 -38 -18 -502 -316 -1030 -661
-882 -578 -967 -636 -1046 -715 -121 -121 -183 -230 -233 -410 -20 -74 -20
-95 -24 -1430 -2 -943 0 -1380 8 -1439 29 -217 124 -403 280 -544 75 -67 1932
-1288 2038 -1339 84 -41 208 -73 317 -83 148 -14 361 38 501 123 128 78 1854
1211 1915 1258 175 134 300 355 328 584 7 55 11 504 11 1303 0 1322 3 1260
-55 1305 -33 26 -100 29 -133 6 -55 -38 -52 30 -52 -1321 0 -1393 3 -1322 -71
-1472 -80 -163 -71 -156 -1114 -838 -511 -335 -946 -618 -965 -630 -150 -92
-393 -104 -565 -28 -27 12 -481 304 -1008 650 -676 443 -974 644 -1012 682
-68 69 -115 145 -152 248 l-28 80 0 1400 0 1400 28 80 c36 101 86 184 151 249
66 65 1941 1297 2035 1337 133 56 297 63 431 18 103 -34 -53 66 1523 -967 417
-274 525 -349 515 -358 -7 -7 -112 -82 -233 -167 l-219 -155 -72 68 c-169 160
-391 266 -661 315 -105 19 -436 31 -413 15 8 -6 56 -35 105 -66 392 -242 720
-605 935 -1032 67 -134 88 -184 137 -327 37 -110 93 -326 93 -363 0 -44 19
-11 54 96 120 359 123 707 10 985 -13 34 -21 64 -17 68 5 3 148 105 318 226
692 490 793 564 809 587 28 44 30 96 4 145 -30 57 -76 84 -139 78 -41 -3 -72
-22 -267 -160 l-220 -157 -1008 662 c-555 364 -1041 676 -1079 694 -142 66
-344 97 -487 74z"/>
<path d="M2475 5288 c-133 -70 -289 -164 -328 -197 -16 -14 -7 -19 115 -61
555 -193 1059 -652 1364 -1244 183 -355 262 -647 271 -1006 l5 -195 -73 -49
c-134 -89 -252 -158 -407 -238 -84 -43 -156 -78 -161 -78 -4 0 9 34 30 75 20
41 47 119 60 172 34 137 34 375 0 543 -46 233 -164 520 -298 725 -272 415
-673 728 -1063 831 -117 31 -295 41 -385 22 -59 -13 -61 -14 -148 -118 -112
-134 -224 -297 -211 -308 5 -5 32 -17 59 -27 152 -54 383 -190 540 -316 515
-414 895 -1138 895 -1705 l0 -72 -52 -12 c-92 -19 -239 -39 -354 -46 l-111 -6
-6 118 c-11 218 -64 417 -172 639 -108 223 -239 401 -428 581 -124 118 -230
196 -360 264 -80 42 -223 100 -247 100 -4 0 -17 -34 -29 -75 -81 -272 -92
-545 -31 -778 78 -299 291 -558 576 -700 134 -67 367 -130 529 -142 112 -9
120 -11 134 -41 6 -15 21 -86 32 -158 37 -251 69 -353 128 -419 105 -117 259
-78 311 77 11 34 29 126 40 206 37 259 78 350 185 405 55 28 66 30 164 29 122
-1 150 -10 269 -82 92 -56 158 -75 214 -63 109 25 164 104 255 364 75 216 103
259 243 372 52 42 141 119 197 171 115 107 126 127 165 306 29 138 31 413 4
563 -158 867 -907 1605 -1666 1641 l-115 5 -140 -73z"/>
<path d="M3515 1760 c-109 -44 -129 -270 -30 -348 39 -31 78 -28 120 9 43 38
70 120 61 186 -14 103 -88 179 -151 153z"/>
</g>
</svg>
