<?xml version="1.0" standalone="no"?>
<!DOCTYPE svg PUBLIC "-//W3C//DTD SVG 20010904//EN"
 "http://www.w3.org/TR/2001/REC-SVG-20010904/DTD/svg10.dtd">
<svg version="1.0" xmlns="http://www.w3.org/2000/svg"
 width="250.000000pt" height="250.000000pt" viewBox="0 0 250.000000 250.000000"
 preserveAspectRatio="xMidYMid meet">

<g transform="translate(0.000000,250.000000) scale(0.100000,-0.100000)"
fill="#000000" stroke="none">
<path d="M1092 2344 c-42 -15 -617 -385 -697 -450 -22 -17 -54 -56 -70 -85
l-30 -54 -3 -489 c-3 -559 -4 -551 76 -636 30 -31 158 -121 352 -248 168 -110
321 -207 340 -217 20 -10 66 -20 106 -23 61 -4 80 -1 125 20 86 40 670 430
710 475 70 78 70 75 67 573 l-3 445 -24 3 c-50 7 -51 1 -51 -460 0 -402 -1
-431 -19 -466 -11 -20 -32 -49 -48 -63 -15 -14 -171 -119 -345 -233 -292 -190
-322 -208 -371 -213 -30 -3 -69 0 -88 6 -19 6 -180 107 -359 224 -255 168
-331 223 -355 256 l-30 43 -3 471 c-3 507 -1 531 47 584 33 36 643 442 691
459 46 17 103 17 143 0 46 -19 667 -428 662 -435 -2 -4 -35 -28 -73 -55 l-70
-48 -39 30 c-81 65 -189 102 -295 102 l-51 0 69 -49 c167 -118 293 -298 340
-487 l17 -68 19 55 c28 82 34 182 14 257 -9 35 -16 67 -16 71 0 4 83 67 184
140 101 72 187 139 190 148 9 21 -20 63 -43 63 -10 0 -52 -24 -93 -54 l-75
-54 -347 228 c-228 150 -362 232 -391 239 -59 15 -111 13 -163 -5z"/>
<path d="M990 1740 c-41 -23 -79 -45 -83 -50 -5 -4 8 -13 30 -20 21 -7 67 -28
103 -47 248 -134 433 -422 442 -686 3 -73 1 -79 -22 -97 -30 -22 -180 -103
-180 -97 0 3 7 21 15 40 19 46 20 184 1 254 -62 231 -266 442 -469 483 -93 19
-123 4 -200 -101 l-27 -36 84 -41 c138 -69 281 -221 351 -375 31 -67 65 -198
65 -248 0 -35 -3 -39 -37 -48 -21 -6 -59 -11 -84 -11 l-46 0 -6 63 c-17 177
-159 386 -316 465 -35 18 -70 32 -76 32 -19 0 -37 -110 -34 -201 7 -149 79
-257 213 -320 33 -16 92 -33 130 -38 37 -5 70 -12 72 -14 3 -2 9 -33 15 -68
18 -114 53 -162 106 -143 30 10 41 35 62 149 8 43 18 66 36 83 36 31 97 30
150 -3 80 -49 124 -22 165 101 23 67 27 73 143 175 31 27 41 46 53 94 28 121
9 240 -60 381 -97 196 -285 340 -469 359 -47 5 -59 2 -127 -35z"/>
<path d="M1345 573 c-21 -21 -16 -92 7 -107 22 -14 58 18 58 51 0 52 -37 84
-65 56z"/>
</g>
</svg>
